<?xml version="1.0" encoding="UTF-8" standalone="no"?>
<!-- Created with Inkscape (http://www.inkscape.org/) -->

<svg
   xmlns:dc="http://purl.org/dc/elements/1.1/"
   xmlns:cc="http://creativecommons.org/ns#"
   xmlns:rdf="http://www.w3.org/1999/02/22-rdf-syntax-ns#"
   xmlns:svg="http://www.w3.org/2000/svg"
   xmlns="http://www.w3.org/2000/svg"
   xmlns:sodipodi="http://sodipodi.sourceforge.net/DTD/sodipodi-0.dtd"
   xmlns:inkscape="http://www.inkscape.org/namespaces/inkscape"
   width="210mm"
   height="297mm"
   viewBox="0 0 744.09448819 1052.3622047"
   id="svg2"
   version="1.1"
   inkscape:version="0.91 r13725"
   sodipodi:docname="wpadvanced.svg">
  <defs
     id="defs4" />
  <sodipodi:namedview
     id="base"
     pagecolor="#ffffff"
     bordercolor="#666666"
     borderopacity="1.0"
     inkscape:pageopacity="0.0"
     inkscape:pageshadow="2"
     inkscape:zoom="0.24748737"
     inkscape:cx="1036.7809"
     inkscape:cy="621.07132"
     inkscape:document-units="px"
     inkscape:current-layer="layer1"
     showgrid="false"
     inkscape:window-width="1276"
     inkscape:window-height="755"
     inkscape:window-x="1291"
     inkscape:window-y="39"
     inkscape:window-maximized="0" />
  <metadata
     id="metadata7">
    <rdf:RDF>
      <cc:Work
         rdf:about="">
        <dc:format>image/svg+xml</dc:format>
        <dc:type
           rdf:resource="http://purl.org/dc/dcmitype/StillImage" />
        <dc:title></dc:title>
      </cc:Work>
    </rdf:RDF>
  </metadata>
  <g
     inkscape:label="Layer 1"
     inkscape:groupmode="layer"
     id="layer1">
    <path
       style="stroke:#000000;stroke-width:4.36274767;stroke-opacity:1"
       id="path4140"
       d="m 22.407592,880.56914 c 2.618032,-16.12936 6.181193,-31.93599 9.644035,-47.78378 3.753723,-17.05633 6.862077,-34.34947 9.774375,-51.677 1.676239,-12.63872 4.495572,-24.96738 7.152612,-37.30475 2.14608,-8.53696 3.188061,-17.37328 4.337718,-26.18648 1.419182,-11.55859 2.117788,-23.25651 2.891793,-34.91499 1.502619,-10.51784 -0.152562,-20.42334 -1.961986,-30.64717 -3.525942,-18.51332 -5.930951,-37.33245 -8.477628,-56.10097 -2.391343,-17.66837 -5.677193,-35.09875 -8.399769,-52.67893 -2.21416,-14.35444 -2.810442,-29.00411 -3.719551,-43.56351 -2.105273,-24.98064 -4.387165,-49.92963 -6.029496,-74.97015 -0.694442,-18.45513 -2.36827,-36.91472 -2.478345,-55.40754 -0.119985,-20.17486 1.104351,-40.21878 2.83366,-60.23797 5.089142,-34.06341 18.372553,-64.17515 32.517019,-93.12667 6.868449,-13.13662 13.262426,-26.65617 19.64978,-40.1868 4.055595,-8.57857 8.734302,-16.59769 13.289375,-24.73198 7.783266,-14.33338 15.271156,-28.85406 24.361026,-41.8707 20.84505,-29.10392 48.58979,-46.76225 74.88288,-66.036034 10.73115,-6.961235 21.38939,-14.488452 32.90665,-19.105157 7.92437,-3.176432 9.0053,-3.033445 17.50873,-4.949483 27.70126,-3.639826 55.60873,-3.816726 83.42651,-4.684182 16.85234,-1.449366 33.52363,0.399695 49.9152,5.458051 14.51397,4.397549 28.71204,10.770377 42.21014,18.943155 20.00415,12.871609 37.23916,31.57902 54.61816,49.484415 20.81169,19.578735 39.11274,42.875995 56.45405,67.349185 20.24059,28.86429 40.88859,57.24028 61.94476,85.10772 15.11327,18.92489 28.64529,39.6818 41.71372,60.94897 11.25454,18.35375 22.21816,36.94293 32.47132,56.25921 12.95487,23.93161 25.18013,48.34886 35.40361,74.42573 8.98747,24.56987 16.95505,49.91708 22.0562,76.34975 1.14727,5.94499 2.01368,11.97507 3.02049,17.96261 6.03441,44.34328 5.9508,89.58237 6.49569,134.46393 0.0756,34.59031 0.91493,69.16134 1.57604,103.73655 -0.0152,21.50942 0.11699,43.02383 -0.90349,64.49957 -1.0738,17.90797 -3.76263,35.80384 -9.31735,52.34907 -1.00613,2.99674 -2.23072,5.86247 -3.34607,8.79366 -5.2206,12.87414 -13.04998,22.61325 -22.38105,30.38272 -22.31814,18.24879 -26.84181,22.02591 -48.32428,25.27115 -6.30113,0.045 -13.34837,2.88512 -19.54927,0.16086 -1.10795,-0.4865 -2.07831,-1.39219 -3.11747,-2.08834 -6.08317,-5.61217 -10.96574,-13.11375 -16.02774,-20.16418 -5.7484,-8.76928 -11.15388,-17.89648 -16.93666,-26.63158 -4.97192,-7.45491 -10.82829,-13.79081 -16.46831,-20.36382 -5.32666,-6.05702 -11.03468,-11.48873 -16.53394,-17.26297 -7.94603,-8.91667 -15.74353,-18.05005 -23.62527,-27.06124 -15.85971,-18.06424 -32.29429,-35.24718 -48.53724,-52.72228 -13.93121,-14.66862 -26.89287,-30.87332 -41.46231,-44.50157 -7.40896,-6.51985 -16.11629,-8.12628 -24.76481,-9.73071 -8.38754,-1.23552 -16.53746,-3.48516 -25.01067,-2.69353 -1.34662,0.47765 -2.74714,0.74949 -4.03989,1.43259 -1.32585,0.70058 -5.00742,3.60119 -3.76062,2.68921 6.72661,-4.92054 13.38562,-10.00179 20.20025,-14.71481 1.25942,-0.87103 -2.34906,2.10291 -3.51306,3.17379 -6.60839,6.07983 0.0943,0.0711 -6.051,5.53824 -9.13037,6.6089 -18.14231,13.49997 -27.39111,19.82656 -2.73053,1.86773 -5.922,2.27031 -8.87322,3.44718 -6.59878,2.63133 -12.85145,5.76045 -19.14886,9.41787 -2.19456,1.50601 -8.73179,6.13225 -6.58362,4.51803 5.66595,-4.25784 11.1437,-9.03536 17.14004,-12.45086 2.23572,-1.27351 -3.92768,3.78331 -5.713,5.942 -7.36591,8.90627 -12.97217,20.19026 -18.80975,30.70496 -18.54725,33.13394 -38.14527,65.25838 -58.64895,96.391 -17.20143,25.10748 -34.68879,50.14222 -54.51254,71.87516 -3.75718,4.11905 -7.69079,7.96002 -11.53619,11.94008 -17.91726,17.44742 -37.97064,30.97724 -58.10052,43.57692 -3.98722,2.4958 -8.2869,4.0545 -12.47875,5.904 -10.55594,4.6577 -12.13774,4.9147 -22.66256,8.4129 -10.51685,3.1575 -21.169404,6.1614 -32.022513,4.603 -3.525294,-0.5063 -6.308151,-1.5419 -9.697656,-2.6362 -5.847705,-2.1237 -9.470644,-8.1965 -13.257639,-13.8881 -4.591824,-7.8801 -9.388789,-15.56313 -14.269659,-23.14605 -3.702981,-5.72977 -6.093533,-12.55328 -9.271383,-18.74969 -4.011561,-7.21551 -6.548867,-15.56032 -9.917087,-23.28372 -3.021845,-6.31472 -5.557915,-12.85496 -7.660872,-19.75111 -1.973264,-5.47868 -3.241095,-11.26231 -5.424539,-16.62038 -1.849834,-3.56828 -2.7502927,-7.59321 -3.1200652,-11.81697 -0.2927896,-4.58329 1.4191212,-7.97051 3.8583142,-11.01311 8.915025,-8.67394 3.909141,-3.89921 26.764848,-20.36711 0.437205,-0.31485 1.006706,-0.095 1.484154,-0.28897 0.440012,-0.17827 0.821903,-0.54138 1.232843,-0.81207 0,0 -22.478375,22.98056 -22.478375,22.98056 l 0,0 c -0.878441,0.38979 -3.34162,2.08866 -2.538782,1.48453 23.724981,-17.85121 31.347241,-23.13724 22.082338,-16.68303 -2.297394,1.68917 -4.561432,4.02703 -5.065265,7.54415 0.276771,3.81938 0.90293,7.42044 2.469898,10.74561 2.076968,5.55092 3.557642,11.34965 5.532142,16.95162 2.00272,6.77046 4.160643,13.36705 7.082624,19.59553 3.269028,7.66945 5.999163,15.79533 10.170425,22.75033 3.176423,6.0844 5.093725,13.0559 8.710136,18.77019 4.795849,7.68184 9.637196,15.30412 14.658834,22.74154 3.425622,5.14765 6.496301,10.57305 11.840953,12.43265 3.390502,1.146 5.361786,1.9708 8.950046,2.4593 10.27294,1.3984 20.42315,-1.5639 30.40126,-4.3482 9.88611,-3.29616 12.1454,-3.78608 22.03768,-8.21408 4.09892,-1.83465 8.41279,-8.65986 12.18813,-5.89565 3.15752,2.31187 -12.29922,9.16177 -8.71536,8.43834 3.91496,-0.79028 21.31208,-17.30274 24.21528,-19.94156 3.88671,-3.93559 7.86507,-7.7239 11.66011,-11.80687 20.03896,-21.55899 37.63221,-46.59712 54.98264,-71.65953 20.33339,-30.61124 39.78912,-62.23168 57.55996,-95.43296 5.42677,-10.44326 10.57602,-21.71885 17.34868,-30.86054 11.25537,-15.1925 26.93729,-23.12305 41.19009,-32.70078 8.22108,-4.53252 16.5995,-7.97931 25.00374,-11.84658 9.88681,-4.54943 13.38932,-9.26988 -16.77131,13.96611 14.6169,-11.94322 28.15826,-29.16094 45.65625,-32.56454 8.55237,-0.0765 16.98298,1.6667 25.4435,3.14044 8.93282,1.90144 17.70455,4.22873 25.02967,11.66489 13.77776,14.63907 26.29833,31.11456 40.06268,45.78258 16.41986,17.53436 33.12864,34.60468 49.79204,51.74805 8.22002,8.6202 16.16708,17.64906 24.31533,26.38177 5.63497,5.72218 11.45782,11.1395 16.79799,17.34101 5.60867,6.76845 11.37845,13.37584 16.36085,20.94567 5.80894,8.65346 10.95071,18.00328 16.96176,26.42703 4.90358,6.63995 9.56672,13.91402 15.6513,18.79007 6.8811,3.30688 14.34297,1.34174 21.47807,0.57784 4.30505,-0.77479 8.57906,-1.62292 12.80394,-2.97635 9.75095,-3.12363 24.65942,-14.92822 -12.6342,12.17768 9.67274,-7.24228 18.06281,-16.38187 23.79172,-29.04706 1.1817,-2.84346 2.48444,-5.60788 3.5452,-8.53027 5.85126,-16.11997 8.73579,-33.83229 9.85228,-51.49205 1.14854,-21.3953 0.75297,-42.79751 0.85839,-64.23089 0.84564,-35.16054 1.74539,-70.32917 1.22226,-105.51446 -0.55862,-44.46328 -1.08338,-89.23129 -7.48713,-133.0661 -1.04224,-5.88634 -1.94901,-11.81568 -3.12675,-17.65897 -5.26089,-26.10161 -13.16683,-51.25002 -22.33872,-75.41816 -10.32728,-25.75976 -22.19432,-50.41568 -35.30379,-73.96486 -4.09863,-7.37891 -8.16777,-14.89018 -12.52166,-22.02808 -6.84019,-11.21401 -14.23532,-21.8681 -20.73108,-33.44123 -12.55344,-21.41176 -24.85386,-43.12858 -39.61548,-62.16626 -20.87142,-28.21229 -42.00797,-56.10163 -62.58698,-84.67179 -17.4971,-23.90787 -35.52049,-47.27251 -55.82946,-67.23332 -17.8146,-17.371192 -35.70478,-35.121479 -56.0049,-47.422447 -13.45054,-7.933307 -27.58071,-13.905942 -41.96684,-18.292519 -15.8736,-4.592335 -32.0516,-6.42318 -48.32368,-5.925422 -27.96854,0.04466 -56.10548,0.269107 -83.80772,5.796773 -3.21501,0.892776 -6.45811,1.629844 -9.64494,2.678326 -14.01228,4.61006 -26.97862,13.255126 -39.78948,21.683052 3.79011,-2.992717 8.01001,-5.221558 11.37032,-8.978112 3.12714,-3.49594 -7.17121,5.320859 -10.66054,8.184689 -9.07059,7.444492 -17.54387,15.727354 -25.28121,25.37039 -1.85048,2.30625 -3.60494,4.738309 -5.40745,7.107469 -9.19198,12.708861 -16.80934,26.930481 -24.32794,41.336521 -4.18373,8.09954 -8.38872,16.21283 -12.66877,24.20279 -7.007379,13.92541 -14.108637,27.77127 -21.547427,41.32321 -14.79473,28.49012 -28.387573,58.37673 -33.997082,92.36682 -0.646544,6.2894 -1.469323,12.55265 -1.93968,18.86827 -2.376513,31.90935 -0.411792,64.0037 1.80334,95.81922 2.273133,24.69315 5.211696,49.27091 7.537647,73.95691 1.324728,14.35132 2.225174,28.7711 3.929646,43.05688 2.545225,17.75401 5.215499,35.47758 7.623604,53.26514 2.63837,18.5537 5.491299,37.0637 9.339571,55.27013 2.179364,11.15363 4.572051,19.9609 2.619712,31.59318 -1.148625,11.60852 -1.724113,23.25464 -2.50341,34.90136 -1.148661,9.09341 -2.336605,18.14392 -4.688317,26.88735 -2.884797,12.16029 -5.477596,24.50235 -7.114984,37.05544 -3.344115,17.59081 -7.473022,34.93432 -10.870543,52.51165 -3.130624,15.23497 -6.483822,30.5166 -7.814502,46.2328 0,0 -25.726513,16.29043 -25.726513,16.29043 z"
       inkscape:connector-curvature="0" />
    <path
       style="stroke:#000000;stroke-width:4.36274767;stroke-opacity:1"
       id="path4142"
       d="m 160.19366,298.32707 c 7.07183,-8.4819 13.62633,-17.64979 20.86554,-25.89575 20.97061,-21.14574 27.85818,-27.57616 49.74815,-22.79266 9.72845,2.87242 19.78649,6.23261 28.07892,13.68688 5.77124,6.40351 9.55731,14.85368 12.34071,23.88563 2.20658,11.20373 2.83579,23.16047 0.94364,34.53932 -0.46492,2.79596 -1.21704,5.49862 -1.82557,8.24795 -4.85714,16.21308 -15.36999,26.9279 -25.78524,37.03364 -14.70533,12.08077 -28.84989,27.42308 -45.9521,32.98217 -9.0128,1.67791 -17.98487,0.82744 -26.80079,-1.89295 -13.50401,-4.98294 -20.20711,-18.23682 -26.61828,-33.34139 -4.63755,-11.20695 -7.93985,-23.12349 -9.78425,-35.59118 -1.06972,-9.17241 -0.6628,-18.51328 -0.54941,-27.75489 0.1441,-10.59312 -0.52125,-21.21524 1.41293,-31.59039 0.33773,-1.11641 0.67577,-2.23282 1.01361,-3.34922 0,0 25.74824,-15.12454 25.74824,-15.12454 l 0,0 c -0.44396,0.95539 -0.8879,1.91084 -1.33183,2.86627 -2.72777,9.96831 -2.09686,20.4599 -2.11618,30.89493 0.059,9.00924 0.0229,18.04243 0.64563,27.02312 1.23832,12.29159 4.00458,24.12306 8.47388,35.13291 6.14398,14.55215 12.56706,26.46296 25.71326,30.49573 8.76433,2.18167 17.77281,2.71829 26.5201,-0.0348 9.63587,-4.03564 20.67873,-14.36218 -14.85718,12.80518 -1.28141,0.97967 2.61016,-1.85357 3.8864,-2.84446 2.01364,-1.56347 7.4687,-6.15326 9.30309,-7.6858 10.31089,-9.63351 20.95242,-19.67456 26.50468,-34.98345 0.65365,-2.5832 1.46976,-5.10666 1.96093,-7.7496 1.98827,-10.69763 1.1707,-21.8958 -0.98451,-32.41366 -2.47456,-8.47069 -5.96425,-16.24948 -11.50282,-21.99536 -7.97898,-6.93979 -17.2778,-10.78324 -26.70274,-12.88348 -5.41882,-0.73214 -10.67587,-1.51734 -16.02928,0.37835 -1.18119,0.41805 -4.45293,2.59566 -3.41513,1.75367 42.04378,-34.10889 24.44588,-19.00437 17.69257,-13.1643 -7.29175,7.56967 -13.74018,16.32113 -20.11403,25.15312 0,0 -26.48294,14.20787 -26.48294,14.20787 z"
       inkscape:connector-curvature="0" />
    <path
       style="stroke:#000000;stroke-width:4.36274767;stroke-opacity:1"
       id="path4144"
       d="m 366.85014,215.67658 c 37.69752,-4.03724 75.56298,-5.66921 113.37707,-6.66467 25.58117,0.37686 52.28238,0.27606 76.54096,12.40355 2.24844,1.12405 4.38254,2.59964 6.57378,3.89945 1.5968,1.50071 3.34054,2.76904 4.79029,4.50212 7.49126,8.95547 9.75424,23.59134 11.7947,35.83895 1.25216,10.13423 2.1535,20.35304 2.63766,30.59885 0.32815,6.94332 0.60982,10.73759 -0.57888,17.54686 -0.48728,2.79119 -1.3738,5.43968 -2.06072,8.15947 -6.04802,16.21155 -16.64711,28.10285 -28.31707,37.36403 -9.80447,7.04083 -19.4605,14.44029 -29.41342,21.12259 -2.02216,1.35765 -11.22192,4.91829 -13.36206,5.81702 -6.45298,2.70977 -12.83673,5.28134 -19.40658,7.48303 -12.23638,3.84955 -24.89991,4.05973 -37.4214,4.24279 -11.87962,-0.0711 -23.75247,-2.98364 -35.02142,-7.81802 -7.81956,-3.35463 -13.59061,-6.8977 -21.19428,-11.1872 -22.58723,-15.0299 -45.05457,-30.77953 -65.89931,-49.62851 -9.03233,-8.99291 -16.79305,-18.86416 -20.3584,-33.08996 -1.82155,-7.59369 0.24495,-13.38589 3.55922,-19.55052 7.1139,-10.07799 14.21179,-20.1316 20.56409,-31.05084 3.65981,-6.27248 6.78105,-13.36345 11.73702,-18.10141 8.65246,-6.26593 17.30492,-12.5319 25.95736,-18.79783 0,0 -22.50283,22.89236 -22.50283,22.89236 l 0,0 c 7.73058,-5.79618 15.46123,-11.5924 23.19181,-17.38858 -5.86752,3.56962 -9.41194,10.70598 -13.14871,17.31147 -6.19438,10.7372 -12.84563,21.02031 -19.97119,30.74092 -3.13294,4.87022 -5.8101,9.90132 -4.67602,16.50239 2.5128,13.46137 9.60685,23.69651 17.71212,32.386 20.14947,19.5422 42.2131,35.79793 65.06926,49.40349 7.35399,3.77924 13.95471,7.42835 21.51314,10.37769 11.41697,4.45494 23.34548,6.75702 35.27021,6.39054 12.478,-0.50192 25.0603,-1.02509 37.21853,-5.07664 8.68934,-2.9877 17.35311,-6.35122 25.8008,-10.35488 2.19714,-1.04128 8.40903,-5.15494 6.51918,-3.36854 -5.36593,5.07227 -11.37553,8.89045 -17.0633,13.33565 1.94098,-1.36719 3.95866,-2.56582 5.82302,-4.10153 7.11352,-5.85948 14.95045,-15.08128 19.91295,-23.92575 1.24315,-2.21558 2.18561,-4.68954 3.27836,-7.03427 1.98428,-6.568 2.97984,-8.49853 3.47623,-15.63673 0.90343,-12.99167 -1.31729,-26.23369 -2.58919,-39.02803 -2.00955,-11.11391 -4.61814,-25.06177 -11.22655,-33.38758 -1.26978,-1.5997 -2.7982,-2.81426 -4.1973,-4.22138 -1.95541,-1.34878 -3.84584,-2.86914 -5.86624,-4.04632 -22.62757,-13.18422 -48.19943,-13.83757 -72.52817,-14.65642 -39.44102,0.6763 -79.1588,2.47814 -118.04462,11.68579 0,0 22.5299,-21.8894 22.5299,-21.8894 z"
       inkscape:connector-curvature="0" />
    <path
       style="stroke:#000000;stroke-width:4.36274767;stroke-opacity:1"
       id="path4146"
       d="m 207.05428,500.53924 c 7.59231,18.28111 18.6083,33.7312 29.80979,48.38157 17.10014,19.67908 38.19828,31.08797 59.6637,40.21301 16.54057,6.22471 33.51445,10.00906 50.46966,13.72516 19.06486,4.09206 38.09543,8.4469 57.2192,12.0695 5.32411,0.47218 10.67661,2.39682 16.04058,2.33007 6.28082,-0.0785 12.52683,-2.59322 18.55844,-4.53205 8.94802,-3.76644 18.08419,-7.30696 26.48321,-12.91595 1.62378,-1.08443 6.34477,-4.69258 4.72878,-3.58883 -6.4656,4.41611 -12.85414,9.01893 -19.28115,13.5284 12.34193,-16.55171 20.13448,-37.90702 27.5901,-58.54079 6.27487,-16.99941 11.16962,-34.80322 14.58351,-53.11059 0.76182,-7.10627 2.471,-14.60831 1.77424,-21.86423 41.39469,-28.93896 28.43986,-17.97311 18.24442,-6.67098 -7.62762,9.4227 -16.33724,17.10124 -25.11486,24.5742 -15.7145,12.86952 -31.67642,25.43603 -48.62951,35.37539 -12.00378,6.29909 -24.48546,11.01714 -37.20947,14.10405 -8.5965,2.45148 -17.26139,4.18575 -26.03726,4.98815 -7.43437,0.47616 -14.88109,0.27706 -22.32057,0.19265 -10.20049,0.19662 -20.36451,-0.39622 -30.53673,-1.28652 -9.23408,-1.68276 -18.50979,-2.88641 -27.77769,-4.2036 -10.98466,-1.42757 -21.728,-4.31324 -32.4186,-7.77483 -6.14673,-1.95789 -12.40937,-3.5146 -18.41252,-6.14775 -4.00767,-1.71207 -8.17666,-2.57486 -12.29015,-3.74544 -3.88947,-0.84302 -7.77936,-1.35289 -11.37047,-3.57468 -2.78218,-1.96574 -5.7569,-2.62694 -8.8653,-2.93762 -2.54385,-0.85771 -5.1314,-1.44112 -7.72492,-1.97407 0,0 23.36683,-21.18788 23.36683,-21.18788 l 0,0 c 2.52689,0.64193 5.04792,1.36113 7.60516,1.76936 3.30739,0.57051 6.37649,1.84743 9.36689,3.78978 3.54714,1.59028 7.28715,2.07283 10.93684,3.14734 4.1837,1.16427 8.42793,2.03024 12.437,4.06012 5.86538,2.35188 11.78301,4.46582 17.71855,6.49903 10.52796,3.67082 21.21011,6.11906 32.0733,7.44291 9.31386,1.24193 18.64273,2.26761 27.91948,3.92914 10.12666,1.04034 20.24825,1.49872 30.40948,1.0831 7.49013,-0.073 14.98773,-0.0884 22.46742,-0.65858 8.49142,-0.82043 16.8939,-2.57406 25.23949,-4.75141 12.66484,-3.30647 25.12703,-8.01936 36.92286,-14.92379 5.35637,-3.36745 4.28162,-2.61245 9.32953,-6.08013 1.34251,-0.92228 5.32352,-3.79842 4.01439,-2.79879 -37.98403,29.00371 -20.175,15.24578 -11.92259,8.6527 8.67849,-7.26609 17.55161,-14.39058 24.91806,-23.88855 11.56348,-13.9628 11.07548,-11.90774 33.42692,-23.72471 -1.34611,7.58298 -0.903,15.66465 -2.69802,23.16936 -3.72991,18.81778 -9.25409,36.97639 -15.67157,54.51805 -7.46945,20.46759 -14.78676,41.56739 -25.80903,59.30521 -10.72115,8.55712 -20.9547,18.34243 -32.36778,25.23668 -8.50124,5.13527 -17.55085,8.64765 -26.50312,12.16061 -4.55193,1.42136 -9.24856,3.0893 -13.92152,3.7936 -7.20066,1.08523 -14.23644,-1.15191 -21.28001,-2.77024 -18.91297,-4.61403 -37.85923,-9.05935 -56.94726,-12.29829 -16.96931,-3.42057 -33.84957,-7.70372 -50.19662,-14.66734 -21.5807,-9.9838 -43.04712,-21.51732 -60.43089,-41.42737 -11.36001,-15.03383 -22.46618,-30.44073 -32.22236,-47.29203 0,0 24.64214,-18.7022 24.64214,-18.7022 z"
       inkscape:connector-curvature="0" />
  </g>
</svg>
